<?xml version="1.0" standalone="no"?>
<!DOCTYPE svg PUBLIC "-//W3C//DTD SVG 20010904//EN"
 "http://www.w3.org/TR/2001/REC-SVG-20010904/DTD/svg10.dtd">
<svg version="1.0" xmlns="http://www.w3.org/2000/svg"
 width="1080.000000pt" height="1080.000000pt" viewBox="0 0 1080.000000 1080.000000"
 preserveAspectRatio="xMidYMid meet">

<g transform="translate(0.000000,1080.000000) scale(0.100000,-0.100000)"
fill="#000000" stroke="none">
<path d="M0 5400 l0 -5400 5400 0 5400 0 0 5400 0 5400 -5400 0 -5400 0 0
-5400z m3380 1105 l0 -305 -537 -2 c-296 0 -545 -1 -553 -2 -13 -1 -16 -134
-20 -1111 l-5 -1110 -307 -3 -308 -2 -2 1112 -3 1113 -550 2 -550 3 -3 305 -2
305 1420 0 1420 0 0 -305z m944 283 c10 -13 40 -48 66 -78 25 -30 54 -64 63
-75 8 -11 71 -85 138 -165 125 -150 192 -229 263 -315 22 -27 55 -65 72 -85
16 -19 39 -47 51 -62 18 -24 101 -123 128 -152 6 -6 30 -36 55 -66 62 -76 108
-125 112 -120 4 6 142 172 174 210 87 102 188 223 234 280 47 58 159 192 234
280 45 53 231 276 243 290 6 8 24 30 38 48 l27 32 317 -2 316 -3 0 -1415 0
-1415 -307 -3 -308 -2 0 945 c0 623 -3 945 -10 945 -5 0 -10 -3 -10 -7 0 -5
-12 -21 -28 -38 -15 -16 -47 -55 -72 -85 -25 -30 -49 -60 -55 -66 -32 -36 -66
-76 -109 -129 -54 -65 -138 -167 -146 -175 -10 -10 -87 -102 -315 -375 -229
-274 -221 -265 -234 -265 -6 0 -11 3 -11 8 0 4 -15 23 -33 42 -18 19 -73 84
-122 144 -50 60 -99 119 -110 130 -11 12 -40 46 -65 76 -25 30 -47 57 -50 60
-3 3 -49 57 -102 120 -52 63 -106 126 -118 140 -12 14 -39 45 -59 69 -20 25
-47 56 -60 70 -13 14 -35 42 -50 61 -14 19 -28 37 -31 40 -3 3 -30 34 -60 70
-85 100 -100 116 -100 105 0 -6 0 -422 0 -925 0 -503 -3 -925 -6 -937 l-6 -23
-298 0 -298 0 -6 23 c-8 30 -8 2802 1 2810 3 4 146 7 317 7 311 0 312 0 330
-22z m3616 -1088 l0 -1110 1113 -2 1112 -3 0 -305 0 -305 -1415 0 -1415 0 -3
1418 -2 1417 305 0 305 0 0 -1110z"/>
</g>
</svg>
